<mxfile host="app.diagrams.net" modified="2023-09-18T17:59:56.777Z" agent="Mozilla/5.0 (Windows NT 10.0; Win64; x64) AppleWebKit/537.36 (KHTML, like Gecko) Chrome/117.0.0.0 Safari/537.36" version="21.7.4" etag="CVjiGSNFxJKHGchRIHoS" type="github">
  <diagram name="PÃ¡gina-1" id="jn1jPTVG08yo6Dco93Et">
    <mxGraphModel>
      <root>
        <mxCell id="0" />
        <mxCell id="1" parent="0" />
      </root>
    </mxGraphModel>
  </diagram>
</mxfile>
